<svg width="664" height="380" xmlns="http://www.w3.org/2000/svg" xmlns:xlink="http://www.w3.org/1999/xlink" xml:space="preserve" overflow="hidden"><g transform="translate(-602 -178)"><path d="M122.961 155.402C122.961 174.153 107.694 189.419 88.9432 189.419M122.961 155.402C122.961 136.651 138.227 121.384 156.978 121.384L175.563 121.384" stroke="#404040" stroke-width="3.31878" stroke-miterlimit="10" fill="none" transform="matrix(1.00037 0 0 1 602 178)"/><path d="M210.41 121.384C210.41 131.007 202.61 138.808 192.987 138.808 183.364 138.808 175.563 131.007 175.563 121.384 175.563 111.762 183.364 103.961 192.987 103.961 202.61 103.961 210.41 111.762 210.41 121.384Z" stroke="#404040" stroke-width="3.31878" stroke-miterlimit="10" fill="#B18BE8" transform="matrix(1.00037 0 0 1 602 178)"/><path d="M355.856 223.437C355.856 204.686 340.59 189.419 321.838 189.419M355.856 223.437C355.856 242.188 371.122 257.454 389.873 257.454L567.76 257.454" stroke="#404040" stroke-width="3.31878" stroke-miterlimit="10" fill="none" transform="matrix(1.00037 0 0 1 602 178)"/><path d="M443.223 257.454C443.223 267.077 435.422 274.878 425.799 274.878 416.176 274.878 408.376 267.077 408.376 257.454 408.376 247.831 416.176 240.031 425.799 240.031 435.422 240.031 443.223 247.831 443.223 257.454Z" stroke="#404040" stroke-width="3.31878" stroke-miterlimit="10" fill="#4ED1A1" transform="matrix(1.00037 0 0 1 602 178)"/><path d="M522.873 257.454C522.873 267.077 515.073 274.878 505.45 274.878 495.827 274.878 488.026 267.077 488.026 257.454 488.026 247.831 495.827 240.031 505.45 240.031 515.073 240.031 522.873 247.831 522.873 257.454Z" stroke="#404040" stroke-width="3.31878" stroke-miterlimit="10" fill="#4ED1A1" transform="matrix(1.00037 0 0 1 602 178)"/><path d="M602.524 257.454C602.524 267.077 594.723 274.878 585.1 274.878 575.478 274.878 567.677 267.077 567.677 257.454 567.677 247.831 575.478 240.031 585.1 240.031 594.723 240.031 602.524 247.831 602.524 257.454Z" stroke="#404040" stroke-width="3.31878" stroke-miterlimit="10" fill="#4ED1A1" transform="matrix(1.00037 0 0 1 602 178)"/><path d="M62.393 189.419 408.376 189.419" stroke="#404040" stroke-width="3.31878" stroke-miterlimit="10" fill="none" transform="matrix(1.00037 0 0 1 602 178)"/><path d="M62.393 189.419C62.393 199.042 54.5922 206.843 44.9694 206.843 35.3467 206.843 27.5458 199.042 27.5458 189.419 27.5458 179.796 35.3467 171.996 44.9694 171.996 54.5922 171.996 62.393 179.796 62.393 189.419Z" stroke="#404040" stroke-width="3.31878" stroke-miterlimit="10" fill="#B3E3FF" transform="matrix(1.00037 0 0 1 602 178)"/><path d="M209.581 189.419C209.581 199.042 201.78 206.843 192.157 206.843 182.534 206.843 174.734 199.042 174.734 189.419 174.734 179.796 182.534 171.996 192.157 171.996 201.78 171.996 209.581 179.796 209.581 189.419Z" stroke="#404040" stroke-width="3.31878" stroke-miterlimit="10" fill="#B3E3FF" transform="matrix(1.00037 0 0 1 602 178)"/><path d="M290.061 189.419C290.061 199.042 282.26 206.843 272.638 206.843 263.015 206.843 255.214 199.042 255.214 189.419 255.214 179.796 263.015 171.996 272.638 171.996 282.26 171.996 290.061 179.796 290.061 189.419Z" stroke="#404040" stroke-width="3.31878" stroke-miterlimit="10" fill="#B3E3FF" transform="matrix(1.00037 0 0 1 602 178)"/><path d="M443.223 189.419C443.223 199.042 435.422 206.843 425.799 206.843 416.176 206.843 408.376 199.042 408.376 189.419 408.376 179.796 416.176 171.996 425.799 171.996 435.422 171.996 443.223 179.796 443.223 189.419Z" stroke="#404040" stroke-width="3.31878" stroke-miterlimit="10" fill="#B3E3FF" transform="matrix(1.00037 0 0 1 602 178)"/><path d="M137.729 4.23144 248.162 4.23144 248.162 45.7162 137.729 45.7162Z" stroke="#404040" stroke-width="3.31878" stroke-linecap="round" stroke-linejoin="round" stroke-miterlimit="10" fill="#B18BE8" transform="matrix(1.00037 0 0 1 602 178)"/><path d="M152.913 29.952 152.913 21.1572 154.157 21.1572 154.157 28.8734 158.306 28.8734 158.306 30.0349 152.913 30.0349ZM160.795 20.9083C161.293 20.9083 161.624 21.2402 161.624 21.738 161.624 22.2358 161.293 22.5677 160.795 22.5677 160.297 22.5677 159.965 22.1528 159.965 21.738 159.965 21.2402 160.38 20.9083 160.795 20.9083ZM160.214 29.952 160.214 23.9782 161.376 23.9782 161.376 29.952 160.214 29.952ZM165.607 23.9782 166.934 23.9782 166.934 25.0568 165.607 25.0568 165.607 28.2096C165.607 28.7904 165.856 29.0393 166.437 29.0393 166.603 29.0393 166.769 29.0393 166.934 28.9563L166.934 29.952C166.852 29.952 166.52 30.0349 166.105 30.0349 165.109 30.0349 164.445 29.3712 164.445 28.2926L164.445 24.9738 163.284 24.9738 163.284 23.8952 163.616 23.8952C164.279 23.8952 164.528 23.4803 164.528 22.9825L164.528 21.9869 165.607 21.9869 165.607 23.9782ZM170.585 23.9782 171.913 23.9782 171.913 25.0568 170.585 25.0568 170.585 28.2096C170.585 28.7904 170.834 29.0393 171.415 29.0393 171.581 29.0393 171.747 29.0393 171.913 28.9563L171.913 29.952C171.83 29.952 171.498 30.0349 171.083 30.0349 170.087 30.0349 169.424 29.3712 169.424 28.2926L169.424 24.9738 168.262 24.9738 168.262 23.8952 168.594 23.8952C169.258 23.8952 169.507 23.4803 169.507 22.9825L169.507 21.9869 170.585 21.9869 170.585 23.9782ZM174.07 29.952 174.07 20.9913 175.231 20.9913 175.231 30.0349 174.07 30.0349ZM183.114 28.2926C182.782 29.3712 181.786 30.2009 180.459 30.2009 178.882 30.2009 177.472 29.0393 177.472 26.9651 177.472 25.0568 178.799 23.8122 180.293 23.8122 182.118 23.8122 183.197 25.0568 183.197 26.9651L183.197 27.2969 178.716 27.2969C178.716 28.3755 179.546 29.1223 180.541 29.1223 181.537 29.1223 182.035 28.6245 182.201 27.8777L183.114 28.2926ZM181.952 26.3843C181.952 25.5546 181.371 24.8908 180.293 24.8908 179.297 24.8908 178.716 25.6376 178.633 26.3843L181.952 26.3843ZM189.087 29.952 189.087 21.1572 194.48 21.1572 194.48 22.3188 190.332 22.3188 190.332 25.1397 194.066 25.1397 194.066 26.3013 190.332 26.3013 190.332 30.0349 189.087 30.0349ZM201.201 28.2926C200.869 29.3712 199.873 30.2009 198.546 30.2009 196.969 30.2009 195.559 29.0393 195.559 26.9651 195.559 25.0568 196.886 23.8122 198.38 23.8122 200.205 23.8122 201.284 25.0568 201.284 26.9651L201.284 27.2969 196.803 27.2969C196.803 28.3755 197.633 29.1223 198.629 29.1223 199.624 29.1223 200.122 28.6245 200.288 27.8777L201.201 28.2926ZM200.039 26.3843C200.039 25.5546 199.459 24.8908 198.38 24.8908 197.384 24.8908 196.803 25.6376 196.721 26.3843L200.039 26.3843ZM204.852 26.5502 206.428 26.3013C206.76 26.2183 206.926 26.0524 206.926 25.8865 206.926 25.3057 206.511 24.8079 205.598 24.8079 204.769 24.8079 204.354 25.3057 204.271 26.0524L203.109 25.8035C203.275 24.6419 204.271 23.8952 205.598 23.8952 207.424 23.8952 208.087 24.8908 208.087 26.0524L208.087 29.0393C208.087 29.5371 208.17 29.869 208.17 30.0349L207.009 30.0349C207.009 29.869 206.926 29.6201 206.926 29.2052 206.677 29.6201 206.096 30.2009 205.017 30.2009 203.773 30.2009 203.026 29.3712 203.026 28.3755 203.026 27.2969 203.773 26.7162 204.852 26.5502ZM206.926 27.4629 206.926 27.214 205.1 27.4629C204.603 27.5459 204.271 27.7948 204.271 28.3755 204.271 28.7904 204.603 29.2052 205.266 29.2052 206.179 29.2052 206.926 28.7074 206.926 27.4629ZM212.07 23.9782 213.397 23.9782 213.397 25.0568 212.07 25.0568 212.07 28.2096C212.07 28.7904 212.319 29.0393 212.9 29.0393 213.065 29.0393 213.231 29.0393 213.397 28.9563L213.397 29.952C213.314 29.952 212.983 30.0349 212.568 30.0349 211.572 30.0349 210.908 29.3712 210.908 28.2926L210.908 24.9738 209.747 24.9738 209.747 23.8952 210.079 23.8952C210.742 23.8952 210.991 23.4803 210.991 22.9825L210.991 21.9869 212.07 21.9869 212.07 23.9782ZM217.712 30.2009C216.301 30.2009 215.472 29.1223 215.472 27.7948L215.472 24.0611 216.633 24.0611 216.633 27.6288C216.633 28.4585 216.965 29.2052 217.961 29.2052 218.873 29.2052 219.371 28.5415 219.371 27.7118L219.371 24.0611 220.533 24.0611 220.533 28.9563C220.533 29.4541 220.533 29.869 220.616 30.0349L219.454 30.0349C219.454 29.869 219.371 29.5371 219.371 29.2882 219.205 29.869 218.459 30.2009 217.712 30.2009ZM226.59 25.2227 226.092 25.2227C225.096 25.2227 224.432 25.7205 224.432 27.048L224.432 30.0349 223.271 30.0349 223.271 24.0611 224.432 24.0611 224.432 25.1397C224.847 24.2271 225.594 23.9782 226.258 23.9782L226.673 23.9782 226.673 25.2227ZM233.559 28.2926C233.227 29.3712 232.231 30.2009 230.904 30.2009 229.328 30.2009 227.917 29.0393 227.917 26.9651 227.917 25.0568 229.245 23.8122 230.738 23.8122 232.563 23.8122 233.642 25.0568 233.642 26.9651L233.642 27.2969 229.162 27.2969C229.162 28.3755 229.991 29.1223 230.987 29.1223 231.983 29.1223 232.48 28.6245 232.646 27.8777L233.559 28.2926ZM232.397 26.3843C232.397 25.5546 231.817 24.8908 230.738 24.8908 229.742 24.8908 229.162 25.6376 229.079 26.3843L232.397 26.3843Z" fill="#404040" transform="matrix(1.00037 0 0 1 602 178)"/><path d="M533.991 333.039 636.21 333.039 636.21 374.524 533.991 374.524Z" stroke="#404040" stroke-width="3.31878" stroke-linecap="round" stroke-linejoin="round" stroke-miterlimit="10" fill="#4ED1A1" transform="matrix(1.00037 0 0 1 602 178)"/><path d="M554.319 349.882C555.978 349.882 556.974 350.878 556.974 352.288 556.974 353.201 556.393 353.948 555.646 354.197 556.642 354.445 557.223 355.358 557.223 356.354 557.223 357.764 556.144 358.76 554.485 358.76L551.415 358.76 551.415 349.965 554.319 349.965ZM554.153 353.782C555.148 353.782 555.729 353.201 555.729 352.371 555.729 351.542 555.148 350.961 554.153 350.961L552.659 350.961 552.659 353.782 554.153 353.782ZM554.402 357.681C555.397 357.681 556.061 357.1 556.061 356.271 556.061 355.441 555.563 354.86 554.485 354.86L552.742 354.86 552.742 357.681 554.402 357.681ZM560.044 349.633C560.541 349.633 560.873 349.965 560.873 350.463 560.873 350.961 560.541 351.293 560.044 351.293 559.546 351.293 559.214 350.878 559.214 350.463 559.214 349.965 559.546 349.633 560.044 349.633ZM559.463 358.76 559.463 352.786 560.624 352.786 560.624 358.76 559.463 358.76ZM563.943 358.76C564.026 359.59 564.69 360.253 565.603 360.253 566.847 360.253 567.428 359.59 567.428 358.345L567.428 357.515C567.179 358.096 566.515 358.511 565.603 358.511 564.026 358.511 562.865 357.266 562.865 355.607 562.865 354.031 563.943 352.703 565.603 352.703 566.515 352.703 567.179 353.035 567.428 353.616L567.428 352.786 568.59 352.786 568.59 358.345C568.59 359.838 567.843 361.332 565.603 361.332 564.109 361.332 563.031 360.419 562.865 359.092L563.943 358.76ZM567.428 355.524C567.428 354.362 566.764 353.616 565.686 353.616 564.69 353.616 563.943 354.362 563.943 355.524 563.943 356.686 564.607 357.432 565.686 357.432 566.681 357.432 567.428 356.686 567.428 355.524ZM574.895 358.76 574.895 349.965 580.288 349.965 580.288 351.127 576.14 351.127 576.14 353.948 579.873 353.948 579.873 355.109 576.14 355.109 576.14 358.843 574.895 358.843ZM587.009 357.017C586.677 358.096 585.681 358.926 584.354 358.926 582.777 358.926 581.367 357.764 581.367 355.69 581.367 353.782 582.694 352.537 584.188 352.537 586.013 352.537 587.092 353.782 587.092 355.69L587.092 356.022 582.611 356.022C582.611 357.1 583.441 357.847 584.437 357.847 585.432 357.847 585.93 357.349 586.096 356.603L587.009 357.017ZM585.847 355.109C585.847 354.279 585.266 353.616 584.188 353.616 583.192 353.616 582.611 354.362 582.528 355.109L585.847 355.109ZM590.576 355.275 592.153 355.026C592.485 354.943 592.651 354.777 592.651 354.611 592.651 354.031 592.236 353.533 591.323 353.533 590.493 353.533 590.079 354.031 589.996 354.777L588.834 354.528C589 353.367 589.996 352.62 591.323 352.62 593.148 352.62 593.812 353.616 593.812 354.777L593.812 357.764C593.812 358.262 593.895 358.594 593.895 358.76L592.734 358.76C592.734 358.594 592.651 358.345 592.651 357.93 592.402 358.345 591.821 358.926 590.742 358.926 589.498 358.926 588.751 358.096 588.751 357.1 588.834 356.022 589.581 355.441 590.576 355.275ZM592.734 356.188 592.734 355.939 590.908 356.188C590.41 356.271 589.996 356.52 589.996 357.1 589.996 357.515 590.328 357.93 590.991 357.93 591.904 357.93 592.734 357.432 592.734 356.188ZM597.878 352.703 599.205 352.703 599.205 353.782 597.878 353.782 597.878 356.935C597.878 357.515 598.127 357.764 598.707 357.764 598.873 357.764 599.039 357.764 599.205 357.681L599.205 358.677C599.122 358.677 598.79 358.76 598.376 358.76 597.38 358.76 596.716 358.096 596.716 357.017L596.716 353.699 595.555 353.699 595.555 352.62 595.886 352.62C596.55 352.62 596.799 352.205 596.799 351.707L596.799 350.712 597.878 350.712 597.878 352.703ZM603.52 358.926C602.109 358.926 601.279 357.847 601.279 356.52L601.279 352.786 602.441 352.786 602.441 356.354C602.441 357.183 602.773 357.93 603.769 357.93 604.681 357.93 605.179 357.266 605.179 356.437L605.179 352.786 606.341 352.786 606.341 357.681C606.341 358.179 606.341 358.594 606.424 358.76L605.262 358.76C605.262 358.594 605.179 358.262 605.179 358.013 604.93 358.594 604.183 358.926 603.52 358.926ZM612.314 353.948 611.817 353.948C610.821 353.948 610.157 354.445 610.157 355.773L610.157 358.76 608.996 358.76 608.996 352.786 610.157 352.786 610.157 353.865C610.572 352.952 611.319 352.703 611.983 352.703L612.397 352.703 612.397 353.948ZM619.367 357.017C619.035 358.096 618.039 358.926 616.712 358.926 615.135 358.926 613.725 357.764 613.725 355.69 613.725 353.782 615.052 352.537 616.546 352.537 618.371 352.537 619.45 353.782 619.45 355.69L619.45 356.022 614.969 356.022C614.969 357.1 615.799 357.847 616.795 357.847 617.79 357.847 618.288 357.349 618.454 356.603L619.367 357.017ZM618.205 355.109C618.205 354.279 617.624 353.616 616.546 353.616 615.55 353.616 614.969 354.362 614.886 355.109L618.205 355.109Z" fill="#404040" transform="matrix(1.00037 0 0 1 602 178)"/><path d="M386.886 72.0175 464.712 72.0175 464.712 113.502 386.886 113.502Z" stroke="#404040" stroke-width="3.31878" stroke-linecap="round" stroke-linejoin="round" stroke-miterlimit="10" fill="#B3E3FF" transform="matrix(1.00037 0 0 1 602 178)"/><path d="M413.935 97.738 413.935 90.8515 410.948 97.738 409.869 97.738 406.882 90.8515 406.882 97.738 405.638 97.738 405.638 88.9432 407.297 88.9432 410.367 96.1616 413.52 88.9432 415.179 88.9432 415.179 97.738 413.935 97.738ZM419.245 94.3362 420.821 94.0873C421.153 94.0044 421.319 93.8384 421.319 93.6725 421.319 93.0917 420.904 92.5939 419.991 92.5939 419.162 92.5939 418.747 93.0917 418.664 93.8384L417.502 93.5895C417.668 92.4279 418.664 91.6812 419.991 91.6812 421.817 91.6812 422.48 92.6769 422.48 93.8384L422.48 96.8253C422.48 97.3232 422.563 97.655 422.563 97.821L421.485 97.821C421.485 97.655 421.402 97.4061 421.402 96.9913 421.153 97.4061 420.572 97.9869 419.493 97.9869 418.249 97.9869 417.502 97.1572 417.502 96.1616 417.419 95.083 418.249 94.5022 419.245 94.3362ZM421.319 95.1659 421.319 94.917 419.493 95.1659C418.996 95.2489 418.664 95.4978 418.664 96.0786 418.664 96.4935 418.996 96.9083 419.659 96.9083 420.572 96.9083 421.319 96.4935 421.319 95.1659ZM425.467 95.8297C425.55 96.4935 426.048 96.9083 426.878 96.9083 427.541 96.9083 427.873 96.5764 427.873 96.0786 427.873 95.7467 427.624 95.4148 427.127 95.3319L426.131 95.083C425.218 94.917 424.638 94.2533 424.638 93.4236 424.638 92.4279 425.633 91.5153 426.795 91.5153 428.454 91.5153 428.952 92.5939 429.035 93.0917L428.039 93.5065C427.956 93.1747 427.707 92.5109 426.795 92.5109 426.214 92.5109 425.799 92.9258 425.799 93.3406 425.799 93.6725 426.048 94.0044 426.463 94.0873L427.459 94.3362C428.537 94.5852 429.118 95.2489 429.118 96.0786 429.118 96.9083 428.371 97.9039 426.961 97.9039 425.301 97.9039 424.638 96.8253 424.555 96.1616L425.467 95.8297ZM432.769 91.7642 434.096 91.7642 434.096 92.8428 432.769 92.8428 432.769 95.9956C432.769 96.5764 433.017 96.8253 433.598 96.8253 433.764 96.8253 433.93 96.8253 434.096 96.7424L434.096 97.738C434.013 97.738 433.681 97.821 433.266 97.821 432.271 97.821 431.607 97.1572 431.607 96.0786L431.607 92.7598 430.445 92.7598 430.445 91.6812 430.777 91.6812C431.441 91.6812 431.69 91.2664 431.69 90.7686L431.69 89.7729 432.769 89.7729 432.769 91.7642ZM441.397 95.9956C441.065 97.0742 440.07 97.9039 438.742 97.9039 437.166 97.9039 435.755 96.7424 435.755 94.6681 435.755 92.7598 437.083 91.5153 438.576 91.5153 440.402 91.5153 441.48 92.7598 441.48 94.6681L441.48 95 437 95C437 96.0786 437.83 96.8253 438.825 96.8253 439.821 96.8253 440.319 96.3275 440.485 95.5808L441.397 95.9956ZM440.236 94.0873C440.236 93.2576 439.655 92.5939 438.576 92.5939 437.581 92.5939 437 93.3406 436.917 94.0873L440.236 94.0873ZM446.873 92.9258 446.376 92.9258C445.38 92.9258 444.716 93.4236 444.716 94.7511L444.716 97.738 443.555 97.738 443.555 91.7642 444.716 91.7642 444.716 92.8428C445.131 91.9301 445.878 91.6812 446.542 91.6812L446.956 91.6812 446.956 92.9258Z" fill="#404040" transform="matrix(1.00037 0 0 1 602 178)"/><path d="M192.987 83.6332 192.987 64.1354M201.948 76.4148 192.987 85.3755 183.943 76.4148M425.799 151.834 425.799 132.336M434.843 144.616 425.799 153.576 416.755 144.616M585.1 295.122 585.1 314.62M576.057 302.341 585.1 293.297 594.144 302.341" stroke="#404040" stroke-width="3.31878" stroke-linecap="round" stroke-linejoin="round" stroke-miterlimit="10" fill="none" transform="matrix(1.00037 0 0 1 602 178)"/></g></svg>